<mxfile host="app.diagrams.net" modified="2021-01-14T02:36:08.212Z" agent="5.0 (Windows NT 10.0; Win64; x64) AppleWebKit/537.36 (KHTML, like Gecko) Chrome/81.0.4044.92 Safari/537.36" etag="5PpdTw-D0ekYhbZEJpxP" version="14.1.8" type="github">
  <diagram id="jYcRAxDgJYYIYYRb9l8G" name="Page-1">
    <mxGraphModel dx="1422" dy="762" grid="1" gridSize="10" guides="1" tooltips="1" connect="1" arrows="1" fold="1" page="1" pageScale="1" pageWidth="827" pageHeight="1169" math="0" shadow="0">
      <root>
        <mxCell id="0" />
        <mxCell id="1" parent="0" />
        <mxCell id="-JC5Y1mmU6ygiX1v_kIU-1" value="index.php" style="whiteSpace=wrap;html=1;aspect=fixed;" vertex="1" parent="1">
          <mxGeometry x="50" y="50" width="60" height="60" as="geometry" />
        </mxCell>
        <mxCell id="-JC5Y1mmU6ygiX1v_kIU-12" style="edgeStyle=orthogonalEdgeStyle;rounded=0;orthogonalLoop=1;jettySize=auto;html=1;" edge="1" parent="1" source="-JC5Y1mmU6ygiX1v_kIU-3" target="-JC5Y1mmU6ygiX1v_kIU-9">
          <mxGeometry relative="1" as="geometry" />
        </mxCell>
        <mxCell id="-JC5Y1mmU6ygiX1v_kIU-3" value="bootstrap/app.php" style="whiteSpace=wrap;html=1;" vertex="1" parent="1">
          <mxGeometry x="220" y="50" width="130" height="60" as="geometry" />
        </mxCell>
        <mxCell id="-JC5Y1mmU6ygiX1v_kIU-4" value="composer&lt;br&gt;自动加载" style="text;html=1;strokeColor=none;fillColor=none;align=center;verticalAlign=middle;whiteSpace=wrap;rounded=0;" vertex="1" parent="1">
          <mxGeometry x="40" y="120" width="80" height="20" as="geometry" />
        </mxCell>
        <mxCell id="-JC5Y1mmU6ygiX1v_kIU-7" value="创建实例&lt;br&gt;" style="text;html=1;align=center;verticalAlign=middle;resizable=0;points=[];autosize=1;" vertex="1" parent="1">
          <mxGeometry x="255" y="130" width="60" height="20" as="geometry" />
        </mxCell>
        <mxCell id="-JC5Y1mmU6ygiX1v_kIU-9" value="容器" style="shape=cube;whiteSpace=wrap;html=1;boundedLbl=1;backgroundOutline=1;darkOpacity=0.05;darkOpacity2=0.1;" vertex="1" parent="1">
          <mxGeometry x="225" y="320" width="365" height="170" as="geometry" />
        </mxCell>
        <mxCell id="-JC5Y1mmU6ygiX1v_kIU-14" value="Http kernel" style="rounded=1;whiteSpace=wrap;html=1;" vertex="1" parent="1">
          <mxGeometry x="280" y="375" width="60" height="45" as="geometry" />
        </mxCell>
        <mxCell id="-JC5Y1mmU6ygiX1v_kIU-15" value="Console kernel&lt;br&gt;" style="rounded=1;whiteSpace=wrap;html=1;" vertex="1" parent="1">
          <mxGeometry x="490" y="375" width="70" height="35" as="geometry" />
        </mxCell>
        <mxCell id="-JC5Y1mmU6ygiX1v_kIU-17" value="&lt;h1&gt;laravel 运行容器&lt;/h1&gt;&lt;div&gt;默认有&amp;nbsp; http 内核 ，console 内核&lt;/div&gt;&lt;div&gt;（在实例容器时注入的）&lt;/div&gt;" style="text;html=1;strokeColor=none;fillColor=none;spacing=5;spacingTop=-20;whiteSpace=wrap;overflow=hidden;rounded=0;" vertex="1" parent="1">
          <mxGeometry x="610" y="360" width="190" height="120" as="geometry" />
        </mxCell>
      </root>
    </mxGraphModel>
  </diagram>
</mxfile>
